<svg width="840" height="210" viewBox="0 0 840 210" xmlns="http://www.w3.org/2000/svg" role="img" aria-label="Contribution activity graph for Harikeshav-R">
  <defs>
    <linearGradient id="areaGrad" x1="0" y1="0" x2="0" y2="1">
      <stop offset="0%" stop-color="#4a8296" stop-opacity="0.45"/>
      <stop offset="60%" stop-color="#2C5364" stop-opacity="0.15"/>
      <stop offset="100%" stop-color="#0D1117" stop-opacity="0.0"/>
    </linearGradient>
  </defs>
  <style>
    .title{font:600 17px 'Segoe UI',Ubuntu,sans-serif;fill:#2C5364}
    .subtitle{font:400 13px 'Segoe UI',Ubuntu,sans-serif;fill:#8b949e}
    .stat-pill{font:600 12px 'Segoe UI',Ubuntu,sans-serif;fill:#c9d1d9}
    .stat-highlight{font:700 12px 'Segoe UI',Ubuntu,sans-serif;fill:#4a8296}
    .grid{stroke:#1b2430;stroke-dasharray:3,4;stroke-width:1}
    .axis-lbl{font:400 11px 'Segoe UI',Ubuntu,sans-serif;fill:#8b949e}
    .pt-val{font:600 10px 'Segoe UI',Ubuntu,sans-serif;fill:#c9d1d9;text-anchor:middle}
  </style>

  <rect x="0.5" y="0.5" rx="8" width="839" height="209" fill="#0D1117" stroke="#1b2430"/>

  <!-- Header -->
  <g transform="translate(25 33)">
    <text x="0" y="0" class="title">Contribution Graph</text>
    <text x="160" y="0" class="subtitle">· Last 31 Days</text>
  </g>

  <!-- Stat summary pills on top right -->
  <g transform="translate(805 33)" text-anchor="end">
    <text x="0" y="0" class="stat-pill">
      Total: <tspan class="stat-highlight">324</tspan> contribs
      <tspan fill="#8b949e">  ·  </tspan>
      Max: <tspan class="stat-highlight">40</tspan>/day
    </text>
  </g>

  <!-- Y Grid & Labels -->
  <g>
    <line x1="45" y1="68" x2="805" y2="68" class="grid"/>
    <text x="35" y="72" class="axis-lbl" text-anchor="end">40</text>

    <line x1="45" y1="120" x2="805" y2="120" class="grid"/>
    <text x="35" y="124" class="axis-lbl" text-anchor="end">20</text>

    <line x1="45" y1="172" x2="805" y2="172" stroke="#1b2430" stroke-width="1.2"/>
    <text x="35" y="176" class="axis-lbl" text-anchor="end">0</text>
  </g>

  <!-- Area & Line Graph -->
  <path d="M 45.00 172.00 L 45.00 169.40 C 49.22 169.83, 61.89 172.00, 70.33 172.00 C 78.78 172.00, 87.22 169.40, 95.67 169.40 C 104.11 169.40, 112.56 171.57, 121.00 172.00 C 129.44 172.00, 137.89 172.00, 146.33 172.00 C 154.78 172.00, 163.22 172.00, 171.67 172.00 C 180.11 169.83, 188.56 162.03, 197.00 159.00 C 205.44 155.97, 213.89 152.07, 222.33 153.80 C 230.78 155.53, 239.22 172.00, 247.67 169.40 C 256.11 162.90, 264.56 127.80, 273.00 114.80 C 281.44 101.80, 289.89 87.50, 298.33 91.40 C 306.78 95.30, 315.22 128.23, 323.67 138.20 C 332.11 148.17, 340.56 160.30, 349.00 151.20 C 357.44 142.10, 365.89 84.03, 374.33 83.60 C 382.78 83.17, 391.22 134.73, 399.67 148.60 C 408.11 162.47, 416.56 167.67, 425.00 166.80 C 433.44 165.93, 441.89 143.40, 450.33 143.40 C 458.78 143.40, 467.22 162.03, 475.67 166.80 C 484.11 171.57, 492.56 171.13, 501.00 172.00 C 509.44 172.00, 517.89 172.00, 526.33 172.00 C 534.78 170.70, 543.22 172.00, 551.67 164.20 C 560.11 155.10, 568.56 127.37, 577.00 117.40 C 585.44 107.43, 593.89 100.93, 602.33 104.40 C 610.78 107.87, 619.22 129.53, 627.67 138.20 C 636.11 146.87, 644.56 164.20, 653.00 156.40 C 661.44 148.60, 669.89 102.23, 678.33 91.40 C 686.78 80.57, 695.22 95.30, 703.67 91.40 C 712.11 87.50, 720.56 68.00, 729.00 68.00 C 737.44 81.00, 745.89 153.80, 754.33 169.40 C 762.78 172.00, 771.22 161.60, 779.67 161.60 C 788.11 161.60, 800.78 168.10, 805.00 169.40 L 805.00 172.00 Z" fill="url(#areaGrad)"/>
  <path d="M 45.00 169.40 C 49.22 169.83, 61.89 172.00, 70.33 172.00 C 78.78 172.00, 87.22 169.40, 95.67 169.40 C 104.11 169.40, 112.56 171.57, 121.00 172.00 C 129.44 172.00, 137.89 172.00, 146.33 172.00 C 154.78 172.00, 163.22 172.00, 171.67 172.00 C 180.11 169.83, 188.56 162.03, 197.00 159.00 C 205.44 155.97, 213.89 152.07, 222.33 153.80 C 230.78 155.53, 239.22 172.00, 247.67 169.40 C 256.11 162.90, 264.56 127.80, 273.00 114.80 C 281.44 101.80, 289.89 87.50, 298.33 91.40 C 306.78 95.30, 315.22 128.23, 323.67 138.20 C 332.11 148.17, 340.56 160.30, 349.00 151.20 C 357.44 142.10, 365.89 84.03, 374.33 83.60 C 382.78 83.17, 391.22 134.73, 399.67 148.60 C 408.11 162.47, 416.56 167.67, 425.00 166.80 C 433.44 165.93, 441.89 143.40, 450.33 143.40 C 458.78 143.40, 467.22 162.03, 475.67 166.80 C 484.11 171.57, 492.56 171.13, 501.00 172.00 C 509.44 172.00, 517.89 172.00, 526.33 172.00 C 534.78 170.70, 543.22 172.00, 551.67 164.20 C 560.11 155.10, 568.56 127.37, 577.00 117.40 C 585.44 107.43, 593.89 100.93, 602.33 104.40 C 610.78 107.87, 619.22 129.53, 627.67 138.20 C 636.11 146.87, 644.56 164.20, 653.00 156.40 C 661.44 148.60, 669.89 102.23, 678.33 91.40 C 686.78 80.57, 695.22 95.30, 703.67 91.40 C 712.11 87.50, 720.56 68.00, 729.00 68.00 C 737.44 81.00, 745.89 153.80, 754.33 169.40 C 762.78 172.00, 771.22 161.60, 779.67 161.60 C 788.11 161.60, 800.78 168.10, 805.00 169.40" fill="none" stroke="#4a8296" stroke-width="2.5" stroke-linecap="round" stroke-linejoin="round"/>

  <!-- Data Points -->
  <circle cx="45.00" cy="169.40" r="4" fill="#0D1117" stroke="#4a8296" stroke-width="2.5"/><circle cx="45.00" cy="169.40" r="1.8" fill="#ffffff"/><text x="45.00" y="161.40" class="pt-val">1</text><circle cx="95.67" cy="169.40" r="4" fill="#0D1117" stroke="#4a8296" stroke-width="2.5"/><circle cx="95.67" cy="169.40" r="1.8" fill="#ffffff"/><text x="95.67" y="161.40" class="pt-val">1</text><circle cx="197.00" cy="159.00" r="4" fill="#0D1117" stroke="#4a8296" stroke-width="2.5"/><circle cx="197.00" cy="159.00" r="1.8" fill="#ffffff"/><text x="197.00" y="151.00" class="pt-val">5</text><circle cx="222.33" cy="153.80" r="4" fill="#0D1117" stroke="#4a8296" stroke-width="2.5"/><circle cx="222.33" cy="153.80" r="1.8" fill="#ffffff"/><text x="222.33" y="145.80" class="pt-val">7</text><circle cx="247.67" cy="169.40" r="4" fill="#0D1117" stroke="#4a8296" stroke-width="2.5"/><circle cx="247.67" cy="169.40" r="1.8" fill="#ffffff"/><text x="247.67" y="161.40" class="pt-val">1</text><circle cx="273.00" cy="114.80" r="4" fill="#0D1117" stroke="#4a8296" stroke-width="2.5"/><circle cx="273.00" cy="114.80" r="1.8" fill="#ffffff"/><text x="273.00" y="106.80" class="pt-val">22</text><circle cx="298.33" cy="91.40" r="4" fill="#0D1117" stroke="#4a8296" stroke-width="2.5"/><circle cx="298.33" cy="91.40" r="1.8" fill="#ffffff"/><text x="298.33" y="83.40" class="pt-val">31</text><circle cx="323.67" cy="138.20" r="4" fill="#0D1117" stroke="#4a8296" stroke-width="2.5"/><circle cx="323.67" cy="138.20" r="1.8" fill="#ffffff"/><text x="323.67" y="130.20" class="pt-val">13</text><circle cx="349.00" cy="151.20" r="4" fill="#0D1117" stroke="#4a8296" stroke-width="2.5"/><circle cx="349.00" cy="151.20" r="1.8" fill="#ffffff"/><text x="349.00" y="143.20" class="pt-val">8</text><circle cx="374.33" cy="83.60" r="4" fill="#0D1117" stroke="#4a8296" stroke-width="2.5"/><circle cx="374.33" cy="83.60" r="1.8" fill="#ffffff"/><text x="374.33" y="75.60" class="pt-val">34</text><circle cx="399.67" cy="148.60" r="4" fill="#0D1117" stroke="#4a8296" stroke-width="2.5"/><circle cx="399.67" cy="148.60" r="1.8" fill="#ffffff"/><text x="399.67" y="140.60" class="pt-val">9</text><circle cx="425.00" cy="166.80" r="4" fill="#0D1117" stroke="#4a8296" stroke-width="2.5"/><circle cx="425.00" cy="166.80" r="1.8" fill="#ffffff"/><text x="425.00" y="158.80" class="pt-val">2</text><circle cx="450.33" cy="143.40" r="4" fill="#0D1117" stroke="#4a8296" stroke-width="2.5"/><circle cx="450.33" cy="143.40" r="1.8" fill="#ffffff"/><text x="450.33" y="135.40" class="pt-val">11</text><circle cx="475.67" cy="166.80" r="4" fill="#0D1117" stroke="#4a8296" stroke-width="2.5"/><circle cx="475.67" cy="166.80" r="1.8" fill="#ffffff"/><text x="475.67" y="158.80" class="pt-val">2</text><circle cx="551.67" cy="164.20" r="4" fill="#0D1117" stroke="#4a8296" stroke-width="2.5"/><circle cx="551.67" cy="164.20" r="1.8" fill="#ffffff"/><text x="551.67" y="156.20" class="pt-val">3</text><circle cx="577.00" cy="117.40" r="4" fill="#0D1117" stroke="#4a8296" stroke-width="2.5"/><circle cx="577.00" cy="117.40" r="1.8" fill="#ffffff"/><text x="577.00" y="109.40" class="pt-val">21</text><circle cx="602.33" cy="104.40" r="4" fill="#0D1117" stroke="#4a8296" stroke-width="2.5"/><circle cx="602.33" cy="104.40" r="1.8" fill="#ffffff"/><text x="602.33" y="96.40" class="pt-val">26</text><circle cx="627.67" cy="138.20" r="4" fill="#0D1117" stroke="#4a8296" stroke-width="2.5"/><circle cx="627.67" cy="138.20" r="1.8" fill="#ffffff"/><text x="627.67" y="130.20" class="pt-val">13</text><circle cx="653.00" cy="156.40" r="4" fill="#0D1117" stroke="#4a8296" stroke-width="2.5"/><circle cx="653.00" cy="156.40" r="1.8" fill="#ffffff"/><text x="653.00" y="148.40" class="pt-val">6</text><circle cx="678.33" cy="91.40" r="4" fill="#0D1117" stroke="#4a8296" stroke-width="2.5"/><circle cx="678.33" cy="91.40" r="1.8" fill="#ffffff"/><text x="678.33" y="83.40" class="pt-val">31</text><circle cx="703.67" cy="91.40" r="4" fill="#0D1117" stroke="#4a8296" stroke-width="2.5"/><circle cx="703.67" cy="91.40" r="1.8" fill="#ffffff"/><text x="703.67" y="83.40" class="pt-val">31</text><circle cx="729.00" cy="68.00" r="4" fill="#0D1117" stroke="#4a8296" stroke-width="2.5"/><circle cx="729.00" cy="68.00" r="1.8" fill="#ffffff"/><text x="729.00" y="60.00" class="pt-val">40</text><circle cx="754.33" cy="169.40" r="4" fill="#0D1117" stroke="#4a8296" stroke-width="2.5"/><circle cx="754.33" cy="169.40" r="1.8" fill="#ffffff"/><text x="754.33" y="161.40" class="pt-val">1</text><circle cx="779.67" cy="161.60" r="4" fill="#0D1117" stroke="#4a8296" stroke-width="2.5"/><circle cx="779.67" cy="161.60" r="1.8" fill="#ffffff"/><text x="779.67" y="153.60" class="pt-val">4</text><circle cx="805.00" cy="169.40" r="4" fill="#0D1117" stroke="#4a8296" stroke-width="2.5"/><circle cx="805.00" cy="169.40" r="1.8" fill="#ffffff"/><text x="805.00" y="161.40" class="pt-val">1</text>

  <!-- X Axis Labels -->
  <text x="45.00" y="192.00" class="axis-lbl" text-anchor="start">Aug 31</text><text x="197.00" y="192.00" class="axis-lbl" text-anchor="middle">Sep 6</text><text x="349.00" y="192.00" class="axis-lbl" text-anchor="middle">Sep 12</text><text x="501.00" y="192.00" class="axis-lbl" text-anchor="middle">Sep 18</text><text x="653.00" y="192.00" class="axis-lbl" text-anchor="middle">Sep 24</text><text x="805.00" y="192.00" class="axis-lbl" text-anchor="end">Sep 30</text>
</svg>