<svg width="840" height="210" viewBox="0 0 840 210" xmlns="http://www.w3.org/2000/svg" role="img" aria-label="Contribution activity graph for Harikeshav-R">
  <defs>
    <linearGradient id="areaGrad" x1="0" y1="0" x2="0" y2="1">
      <stop offset="0%" stop-color="#4a8296" stop-opacity="0.45"/>
      <stop offset="60%" stop-color="#2C5364" stop-opacity="0.15"/>
      <stop offset="100%" stop-color="#0D1117" stop-opacity="0.0"/>
    </linearGradient>
  </defs>
  <style>
    .title{font:600 17px 'Segoe UI',Ubuntu,sans-serif;fill:#2C5364}
    .subtitle{font:400 13px 'Segoe UI',Ubuntu,sans-serif;fill:#8b949e}
    .stat-pill{font:600 12px 'Segoe UI',Ubuntu,sans-serif;fill:#c9d1d9}
    .stat-highlight{font:700 12px 'Segoe UI',Ubuntu,sans-serif;fill:#4a8296}
    .grid{stroke:#1b2430;stroke-dasharray:3,4;stroke-width:1}
    .axis-lbl{font:400 11px 'Segoe UI',Ubuntu,sans-serif;fill:#8b949e}
    .pt-val{font:600 10px 'Segoe UI',Ubuntu,sans-serif;fill:#c9d1d9;text-anchor:middle}
  </style>

  <rect x="0.5" y="0.5" rx="8" width="839" height="209" fill="#0D1117" stroke="#1b2430"/>

  <!-- Header -->
  <g transform="translate(25 33)">
    <text x="0" y="0" class="title">Contribution Graph</text>
    <text x="160" y="0" class="subtitle">· Last 31 Days</text>
  </g>

  <!-- Stat summary pills on top right -->
  <g transform="translate(805 33)" text-anchor="end">
    <text x="0" y="0" class="stat-pill">
      Total: <tspan class="stat-highlight">31</tspan> contribs
      <tspan fill="#8b949e">  ·  </tspan>
      Max: <tspan class="stat-highlight">10</tspan>/day
    </text>
  </g>

  <!-- Y Grid & Labels -->
  <g>
    <line x1="45" y1="68" x2="805" y2="68" class="grid"/>
    <text x="35" y="72" class="axis-lbl" text-anchor="end">10</text>

    <line x1="45" y1="120" x2="805" y2="120" class="grid"/>
    <text x="35" y="124" class="axis-lbl" text-anchor="end">5</text>

    <line x1="45" y1="172" x2="805" y2="172" stroke="#1b2430" stroke-width="1.2"/>
    <text x="35" y="176" class="axis-lbl" text-anchor="end">0</text>
  </g>

  <!-- Area & Line Graph -->
  <path d="M 45.00 172.00 L 45.00 172.00 C 49.22 172.00, 61.89 172.00, 70.33 172.00 C 78.78 172.00, 87.22 172.00, 95.67 172.00 C 104.11 172.00, 112.56 172.00, 121.00 172.00 C 129.44 172.00, 137.89 172.00, 146.33 172.00 C 154.78 166.80, 163.22 140.80, 171.67 140.80 C 180.11 140.80, 188.56 166.80, 197.00 172.00 C 205.44 172.00, 213.89 172.00, 222.33 172.00 C 230.78 168.53, 239.22 151.20, 247.67 151.20 C 256.11 151.20, 264.56 168.53, 273.00 172.00 C 281.44 172.00, 289.89 172.00, 298.33 172.00 C 306.78 172.00, 315.22 172.00, 323.67 172.00 C 332.11 172.00, 340.56 172.00, 349.00 172.00 C 357.44 172.00, 365.89 172.00, 374.33 172.00 C 382.78 170.27, 391.22 161.60, 399.67 161.60 C 408.11 161.60, 416.56 170.27, 425.00 172.00 C 433.44 172.00, 441.89 172.00, 450.33 172.00 C 458.78 172.00, 467.22 172.00, 475.67 172.00 C 484.11 172.00, 492.56 172.00, 501.00 172.00 C 509.44 172.00, 517.89 172.00, 526.33 172.00 C 534.78 170.27, 543.22 161.60, 551.67 161.60 C 560.11 161.60, 568.56 172.00, 577.00 172.00 C 585.44 172.00, 593.89 161.60, 602.33 161.60 C 610.78 161.60, 619.22 170.27, 627.67 172.00 C 636.11 172.00, 644.56 172.00, 653.00 172.00 C 661.44 172.00, 669.89 172.00, 678.33 172.00 C 686.78 163.33, 695.22 132.13, 703.67 120.00 C 712.11 107.87, 720.56 92.27, 729.00 99.20 C 737.44 106.13, 745.89 166.80, 754.33 161.60 C 762.78 156.40, 771.22 68.00, 779.67 68.00 C 788.11 69.73, 800.78 154.67, 805.00 172.00 L 805.00 172.00 Z" fill="url(#areaGrad)"/>
  <path d="M 45.00 172.00 C 49.22 172.00, 61.89 172.00, 70.33 172.00 C 78.78 172.00, 87.22 172.00, 95.67 172.00 C 104.11 172.00, 112.56 172.00, 121.00 172.00 C 129.44 172.00, 137.89 172.00, 146.33 172.00 C 154.78 166.80, 163.22 140.80, 171.67 140.80 C 180.11 140.80, 188.56 166.80, 197.00 172.00 C 205.44 172.00, 213.89 172.00, 222.33 172.00 C 230.78 168.53, 239.22 151.20, 247.67 151.20 C 256.11 151.20, 264.56 168.53, 273.00 172.00 C 281.44 172.00, 289.89 172.00, 298.33 172.00 C 306.78 172.00, 315.22 172.00, 323.67 172.00 C 332.11 172.00, 340.56 172.00, 349.00 172.00 C 357.44 172.00, 365.89 172.00, 374.33 172.00 C 382.78 170.27, 391.22 161.60, 399.67 161.60 C 408.11 161.60, 416.56 170.27, 425.00 172.00 C 433.44 172.00, 441.89 172.00, 450.33 172.00 C 458.78 172.00, 467.22 172.00, 475.67 172.00 C 484.11 172.00, 492.56 172.00, 501.00 172.00 C 509.44 172.00, 517.89 172.00, 526.33 172.00 C 534.78 170.27, 543.22 161.60, 551.67 161.60 C 560.11 161.60, 568.56 172.00, 577.00 172.00 C 585.44 172.00, 593.89 161.60, 602.33 161.60 C 610.78 161.60, 619.22 170.27, 627.67 172.00 C 636.11 172.00, 644.56 172.00, 653.00 172.00 C 661.44 172.00, 669.89 172.00, 678.33 172.00 C 686.78 163.33, 695.22 132.13, 703.67 120.00 C 712.11 107.87, 720.56 92.27, 729.00 99.20 C 737.44 106.13, 745.89 166.80, 754.33 161.60 C 762.78 156.40, 771.22 68.00, 779.67 68.00 C 788.11 69.73, 800.78 154.67, 805.00 172.00" fill="none" stroke="#4a8296" stroke-width="2.5" stroke-linecap="round" stroke-linejoin="round"/>

  <!-- Data Points -->
  <circle cx="171.67" cy="140.80" r="4" fill="#0D1117" stroke="#4a8296" stroke-width="2.5"/><circle cx="171.67" cy="140.80" r="1.8" fill="#ffffff"/><text x="171.67" y="132.80" class="pt-val">3</text><circle cx="247.67" cy="151.20" r="4" fill="#0D1117" stroke="#4a8296" stroke-width="2.5"/><circle cx="247.67" cy="151.20" r="1.8" fill="#ffffff"/><text x="247.67" y="143.20" class="pt-val">2</text><circle cx="399.67" cy="161.60" r="4" fill="#0D1117" stroke="#4a8296" stroke-width="2.5"/><circle cx="399.67" cy="161.60" r="1.8" fill="#ffffff"/><text x="399.67" y="153.60" class="pt-val">1</text><circle cx="551.67" cy="161.60" r="4" fill="#0D1117" stroke="#4a8296" stroke-width="2.5"/><circle cx="551.67" cy="161.60" r="1.8" fill="#ffffff"/><text x="551.67" y="153.60" class="pt-val">1</text><circle cx="602.33" cy="161.60" r="4" fill="#0D1117" stroke="#4a8296" stroke-width="2.5"/><circle cx="602.33" cy="161.60" r="1.8" fill="#ffffff"/><text x="602.33" y="153.60" class="pt-val">1</text><circle cx="703.67" cy="120.00" r="4" fill="#0D1117" stroke="#4a8296" stroke-width="2.5"/><circle cx="703.67" cy="120.00" r="1.8" fill="#ffffff"/><text x="703.67" y="112.00" class="pt-val">5</text><circle cx="729.00" cy="99.20" r="4" fill="#0D1117" stroke="#4a8296" stroke-width="2.5"/><circle cx="729.00" cy="99.20" r="1.8" fill="#ffffff"/><text x="729.00" y="91.20" class="pt-val">7</text><circle cx="754.33" cy="161.60" r="4" fill="#0D1117" stroke="#4a8296" stroke-width="2.5"/><circle cx="754.33" cy="161.60" r="1.8" fill="#ffffff"/><text x="754.33" y="153.60" class="pt-val">1</text><circle cx="779.67" cy="68.00" r="4" fill="#0D1117" stroke="#4a8296" stroke-width="2.5"/><circle cx="779.67" cy="68.00" r="1.8" fill="#ffffff"/><text x="779.67" y="60.00" class="pt-val">10</text>

  <!-- X Axis Labels -->
  <text x="45.00" y="192.00" class="axis-lbl" text-anchor="start">Aug 11</text><text x="197.00" y="192.00" class="axis-lbl" text-anchor="middle">Aug 17</text><text x="349.00" y="192.00" class="axis-lbl" text-anchor="middle">Aug 23</text><text x="501.00" y="192.00" class="axis-lbl" text-anchor="middle">Aug 29</text><text x="653.00" y="192.00" class="axis-lbl" text-anchor="middle">Sep 4</text><text x="805.00" y="192.00" class="axis-lbl" text-anchor="end">Sep 10</text>
</svg>